<svg width="389" height="29" viewBox="0 0 389 29" fill="none" xmlns="http://www.w3.org/2000/svg" class="w-full h-6"><path d="M68.7233 16.6067C68.7233 17.9035 68.5182 19.1227 68.1082 20.2643C67.6981 21.3948 67.1106 22.3868 66.3459 23.2402C65.5922 24.0936 64.6834 24.7697 63.6193 25.2685C62.5664 25.7562 61.3916 26 60.0948 26H54.1762C52.8794 26 51.699 25.7562 50.635 25.2685C49.571 24.7697 48.6566 24.0936 47.8919 23.2402C47.1382 22.3868 46.5563 21.3948 46.1462 20.2643C45.7361 19.1227 45.5311 17.9035 45.5311 16.6067C45.5311 15.3211 45.7361 14.113 46.1462 12.9824C46.5563 11.8519 47.1382 10.8655 47.8919 10.0231C48.6566 9.16971 49.571 8.49916 50.635 8.01149C51.699 7.52381 52.8794 7.27998 54.1762 7.27998H60.0948C61.3916 7.27998 62.5664 7.52381 63.6193 8.01149C64.6834 8.49916 65.5922 9.16971 66.3459 10.0231C67.1106 10.8655 67.6981 11.8519 68.1082 12.9824C68.5182 14.113 68.7233 15.3211 68.7233 16.6067ZM65.3151 16.6067C65.3151 15.7866 65.1932 15.0163 64.9494 14.2958C64.7166 13.5643 64.373 12.9326 63.9186 12.4006C63.4752 11.8575 62.9322 11.4307 62.2893 11.1204C61.6465 10.799 60.915 10.6383 60.0948 10.6383H54.1762C53.356 10.6383 52.619 10.799 51.965 11.1204C51.3222 11.4307 50.7736 11.8575 50.3191 12.4006C49.8758 12.9326 49.5322 13.5643 49.2884 14.2958C49.0556 15.0163 48.9392 15.7866 48.9392 16.6067C48.9392 17.4269 49.0556 18.2028 49.2884 18.9343C49.5322 19.6547 49.8758 20.2865 50.3191 20.8295C50.7736 21.3726 51.3222 21.8049 51.965 22.1263C52.619 22.4367 53.356 22.5918 54.1762 22.5918H60.0948C60.915 22.5918 61.6465 22.4367 62.2893 22.1263C62.9322 21.8049 63.4752 21.3726 63.9186 20.8295C64.373 20.2865 64.7166 19.6547 64.9494 18.9343C65.1932 18.2028 65.3151 17.4269 65.3151 16.6067ZM87.9853 26C87.9853 24.7586 87.7747 23.5561 87.3535 22.3923C86.9434 21.2175 86.3837 20.1147 85.6744 19.0839C84.9761 18.042 84.1615 17.0722 83.2305 16.1745C82.3105 15.2767 81.3407 14.4787 80.3211 13.7804C79.3014 13.0711 78.2595 12.4781 77.1955 12.0015C76.1426 11.5139 75.1395 11.1537 74.1863 10.9209V26H70.7782V7.27998H72.6236V7.31323C73.8428 7.37973 75.1395 7.65127 76.5139 8.12786C77.8993 8.59337 79.2737 9.23067 80.6369 10.0398C82.0113 10.8378 83.3302 11.791 84.5937 12.8993C85.8683 13.9966 86.9989 15.2102 87.9853 16.5402V7.27998H91.3768V26H87.9853ZM114.13 26H94.5789V7.21347H114.13V10.6383H98.0203V22.5586H114.13V26ZM111.952 18.236H99.6329V14.7946H111.952V18.236ZM135.803 10.6383H119.66V26H116.218V7.21347H135.803V10.6383ZM133.592 18.236H121.272V14.7946H133.592V18.236ZM142.303 26H138.928V7.27998H142.303V26ZM162.712 26C162.712 24.7586 162.502 23.5561 162.081 22.3923C161.671 21.2175 161.111 20.1147 160.402 19.0839C159.703 18.042 158.889 17.0722 157.958 16.1745C157.038 15.2767 156.068 14.4787 155.048 13.7804C154.029 13.0711 152.987 12.4781 151.923 12.0015C150.87 11.5139 149.867 11.1537 148.913 10.9209V26H145.505V7.27998H147.351V7.31323C148.57 7.37973 149.867 7.65127 151.241 8.12786C152.626 8.59337 154.001 9.23067 155.364 10.0398C156.738 10.8378 158.057 11.791 159.321 12.8993C160.595 13.9966 161.726 15.2102 162.712 16.5402V7.27998H166.104V26H162.712ZM172.681 26H169.306V7.27998H172.681V26ZM186.24 26H182.832V10.6383H173.821V7.27998H195.235V10.6383H186.24V26ZM217.14 20.4804C217.14 21.2452 216.957 21.9656 216.592 22.6417C216.237 23.3067 215.749 23.8886 215.129 24.3874C214.519 24.8861 213.798 25.2796 212.967 25.5677C212.136 25.8559 211.255 26 210.324 26H195.677V22.5918H210.324C210.789 22.5918 211.227 22.5419 211.637 22.4422C212.058 22.3314 212.424 22.1817 212.734 21.9933C213.045 21.7938 213.289 21.5666 213.466 21.3117C213.643 21.0568 213.732 20.7797 213.732 20.4804V19.6325H202.46C201.529 19.6325 200.648 19.4552 199.817 19.1005C198.996 18.7348 198.276 18.2471 197.655 17.6375C197.046 17.0168 196.564 16.2964 196.209 15.4762C195.854 14.645 195.677 13.7583 195.677 12.8162V7.27998H199.052V12.8162C199.052 13.2928 199.141 13.7417 199.318 14.1628C199.495 14.5729 199.739 14.9331 200.049 15.2435C200.36 15.5427 200.72 15.781 201.13 15.9584C201.551 16.1357 201.995 16.2244 202.46 16.2244H213.732V7.27998H217.14V20.4804Z" fill="url(#paint0_linear_16_8591)"></path><path d="M5.01059 25.9994L0.00402832 12.0063L0.00423913 12.0063L13.9442 25.9994H5.01059Z" fill="url(#paint1_linear_16_8591)"></path><path d="M0 12.0416L13.94 7.01758L4.45795 16.5173L0 12.0416Z" fill="url(#paint2_linear_16_8591)"></path><path d="M24.0092 7.01769L23.9915 7L9.46777 21.5237L13.9257 25.9994L32.9251 7L24.0092 7.01769Z" fill="url(#paint3_linear_16_8591)"></path><path d="M36.4237 16.4997L32.9432 7H32.9255L28.4675 11.458L37.9672 20.993L36.4237 16.4997Z" fill="url(#paint4_linear_16_8591)"></path><path d="M37.9421 20.9835L24.0022 25.9898L33.4842 16.5078L37.9421 20.9835Z" fill="url(#paint5_linear_16_8591)"></path><path d="M236.977 18.8145C236.156 18.8145 235.444 18.6875 234.838 18.4336C234.238 18.1797 233.764 17.8257 233.417 17.3716C233.071 16.9175 232.875 16.3877 232.831 15.7822L232.824 15.6797H234.655L234.662 15.7529C234.692 16.0508 234.809 16.3096 235.014 16.5293C235.224 16.749 235.502 16.9224 235.849 17.0493C236.196 17.1714 236.591 17.2324 237.035 17.2324C237.46 17.2324 237.836 17.1665 238.163 17.0347C238.49 16.9028 238.747 16.7222 238.932 16.4927C239.118 16.2583 239.211 15.9897 239.211 15.687V15.6797C239.211 15.2988 239.062 14.9888 238.764 14.7495C238.466 14.5054 237.975 14.3101 237.292 14.1636L236.156 13.9292C235.073 13.6997 234.284 13.3335 233.791 12.8306C233.302 12.3228 233.058 11.6758 233.058 10.8896V10.8823C233.058 10.2524 233.224 9.70068 233.556 9.22705C233.893 8.75342 234.355 8.38477 234.941 8.12109C235.531 7.85254 236.208 7.71826 236.969 7.71826C237.751 7.71826 238.427 7.8501 238.998 8.11377C239.57 8.37256 240.019 8.72656 240.346 9.17578C240.673 9.625 240.856 10.1328 240.895 10.6992L240.903 10.7944H239.101L239.086 10.7065C239.042 10.4282 238.927 10.1865 238.742 9.98145C238.561 9.77148 238.32 9.60547 238.017 9.4834C237.714 9.36133 237.36 9.30029 236.955 9.30029C236.569 9.30029 236.225 9.36133 235.922 9.4834C235.619 9.60059 235.38 9.7666 235.204 9.98145C235.033 10.1963 234.948 10.4551 234.948 10.7578V10.7651C234.948 11.1362 235.092 11.4438 235.38 11.688C235.673 11.9321 236.149 12.1226 236.808 12.2593L237.944 12.501C238.686 12.6572 239.289 12.8647 239.753 13.1235C240.217 13.3823 240.556 13.7046 240.771 14.0903C240.99 14.4712 241.1 14.9302 241.1 15.4673V15.4746C241.1 16.1582 240.932 16.749 240.595 17.2471C240.263 17.7451 239.787 18.1309 239.167 18.4043C238.552 18.6777 237.822 18.8145 236.977 18.8145ZM245.32 18.5508L241.665 7.98193H243.745L246.36 16.3682H246.484L249.106 7.98193H251.186L247.524 18.5508H245.32ZM255.809 18.5508V7.98193H262.65V9.57129H257.699V12.4351H262.379V13.9365H257.699V16.9614H262.65V18.5508H255.809ZM267.265 18.5508L263.61 7.98193H265.69L268.305 16.3682H268.429L271.051 7.98193H273.131L269.469 18.5508H267.265ZM274.355 18.5508V7.98193H276.523L279.702 16.1191H279.826L282.998 7.98193H285.166V18.5508H283.467V11.0361H282.544L284.419 8.2749L280.405 18.5508H279.116L275.11 8.2749L276.985 11.0361H276.054V18.5508H274.355ZM294.901 18.7705C293.944 18.7705 293.116 18.5483 292.418 18.104C291.725 17.6548 291.187 17.02 290.807 16.1997C290.431 15.3794 290.243 14.4053 290.243 13.2773V13.2627C290.243 12.1348 290.431 11.1606 290.807 10.3403C291.187 9.51514 291.725 8.88037 292.418 8.43604C293.116 7.98682 293.941 7.76221 294.894 7.76221C295.621 7.76221 296.285 7.91113 296.886 8.20898C297.491 8.50684 297.989 8.91455 298.38 9.43213C298.77 9.94971 299.015 10.5405 299.112 11.2046L299.105 11.2119L298.102 11.2192V11.2046C297.994 10.7065 297.789 10.2695 297.486 9.89355C297.184 9.51758 296.808 9.22217 296.358 9.00732C295.914 8.79248 295.426 8.68506 294.894 8.68506C294.156 8.68506 293.514 8.87305 292.967 9.24902C292.425 9.625 292.005 10.1548 291.707 10.8384C291.415 11.522 291.268 12.3301 291.268 13.2627V13.2773C291.268 14.2051 291.415 15.0107 291.707 15.6943C292.005 16.3779 292.425 16.9077 292.967 17.2837C293.514 17.6597 294.159 17.8477 294.901 17.8477C295.448 17.8477 295.943 17.7524 296.388 17.562C296.837 17.3716 297.21 17.1055 297.508 16.7637C297.806 16.417 298.001 16.0117 298.094 15.5479L298.109 15.5332H299.112V15.5479C299.01 16.1924 298.766 16.7563 298.38 17.2397C297.999 17.7231 297.511 18.0991 296.915 18.3677C296.319 18.6362 295.648 18.7705 294.901 18.7705ZM303.8 18.6826C303.068 18.6826 302.433 18.519 301.896 18.1919C301.359 17.8599 300.944 17.3887 300.651 16.7783C300.363 16.168 300.219 15.4453 300.219 14.6104V14.5957C300.219 13.7607 300.363 13.0381 300.651 12.4277C300.944 11.8174 301.359 11.3486 301.896 11.0215C302.433 10.6943 303.068 10.5308 303.8 10.5308C304.538 10.5308 305.172 10.6943 305.705 11.0215C306.242 11.3486 306.654 11.8174 306.942 12.4277C307.235 13.0381 307.382 13.7607 307.382 14.5957V14.6104C307.382 15.4453 307.235 16.168 306.942 16.7783C306.654 17.3887 306.242 17.8599 305.705 18.1919C305.172 18.519 304.538 18.6826 303.8 18.6826ZM303.8 17.8257C304.342 17.8257 304.806 17.6963 305.192 17.4375C305.583 17.1787 305.88 16.8101 306.085 16.3315C306.295 15.8481 306.4 15.2744 306.4 14.6104V14.5957C306.4 13.9316 306.295 13.3604 306.085 12.8818C305.88 12.3984 305.583 12.0298 305.192 11.7759C304.806 11.5171 304.342 11.3877 303.8 11.3877C303.258 11.3877 302.792 11.5171 302.401 11.7759C302.016 12.0298 301.718 12.396 301.508 12.8745C301.303 13.353 301.2 13.9268 301.2 14.5957V14.6104C301.2 15.2744 301.303 15.8481 301.508 16.3315C301.718 16.8101 302.016 17.1787 302.401 17.4375C302.792 17.6963 303.258 17.8257 303.8 17.8257ZM308.862 18.5508V10.6626H309.829V12.0615H309.917C310.088 11.583 310.366 11.2095 310.752 10.9409C311.142 10.6675 311.606 10.5308 312.143 10.5308C312.514 10.5308 312.846 10.5942 313.139 10.7212C313.437 10.8481 313.691 11.0288 313.901 11.2632C314.111 11.4976 314.272 11.7734 314.384 12.0908H314.472C314.609 11.7734 314.797 11.4976 315.036 11.2632C315.28 11.0288 315.564 10.8481 315.886 10.7212C316.213 10.5942 316.565 10.5308 316.941 10.5308C317.468 10.5308 317.917 10.6333 318.288 10.8384C318.659 11.0435 318.943 11.3413 319.138 11.7319C319.333 12.1226 319.431 12.5962 319.431 13.1528V18.5508H318.471V13.3726C318.471 12.9429 318.403 12.5815 318.266 12.2886C318.13 11.9907 317.927 11.7661 317.658 11.6147C317.39 11.4634 317.055 11.3877 316.655 11.3877C316.25 11.3877 315.893 11.4829 315.586 11.6733C315.283 11.8638 315.046 12.1226 314.875 12.4497C314.709 12.772 314.626 13.1382 314.626 13.5483V18.5508H313.659V13.27C313.659 12.8892 313.584 12.5596 313.432 12.2812C313.286 11.998 313.076 11.7783 312.802 11.6221C312.534 11.4658 312.216 11.3877 311.85 11.3877C311.469 11.3877 311.125 11.4927 310.818 11.7026C310.515 11.9077 310.273 12.186 310.092 12.5376C309.917 12.8892 309.829 13.2822 309.829 13.7168V18.5508H308.862ZM321.24 21.1655V10.6626H322.207V12.2373H322.295C322.451 11.8857 322.659 11.583 322.918 11.3291C323.177 11.0703 323.477 10.8726 323.819 10.7358C324.165 10.5991 324.541 10.5308 324.947 10.5308C325.615 10.5308 326.199 10.7017 326.697 11.0435C327.2 11.3804 327.591 11.854 327.869 12.4644C328.147 13.0747 328.286 13.7852 328.286 14.5957V14.6104C328.286 15.4258 328.147 16.1387 327.869 16.749C327.591 17.3594 327.2 17.8354 326.697 18.1772C326.199 18.5142 325.615 18.6826 324.947 18.6826C324.551 18.6826 324.177 18.6143 323.826 18.4775C323.479 18.3359 323.174 18.1406 322.91 17.8916C322.647 17.6426 322.442 17.3472 322.295 17.0054H322.207V21.1655H321.24ZM324.749 17.8257C325.271 17.8257 325.723 17.6938 326.104 17.4302C326.485 17.1665 326.778 16.793 326.983 16.3096C327.193 15.8262 327.298 15.2598 327.298 14.6104V14.5957C327.298 13.9414 327.193 13.375 326.983 12.8965C326.778 12.418 326.485 12.0469 326.104 11.7832C325.723 11.5195 325.271 11.3877 324.749 11.3877C324.226 11.3877 323.772 11.522 323.386 11.7905C323.006 12.0542 322.71 12.4253 322.5 12.9038C322.29 13.3823 322.185 13.9463 322.185 14.5957V14.6104C322.185 15.2598 322.29 15.8262 322.5 16.3096C322.71 16.7881 323.008 17.1616 323.394 17.4302C323.78 17.6938 324.231 17.8257 324.749 17.8257ZM331.927 18.6826C331.419 18.6826 330.968 18.5898 330.572 18.4043C330.177 18.2139 329.864 17.9453 329.635 17.5986C329.405 17.252 329.29 16.8442 329.29 16.3755V16.3608C329.29 15.9067 329.4 15.5161 329.62 15.189C329.84 14.8569 330.162 14.5981 330.587 14.4126C331.012 14.2222 331.527 14.1074 332.132 14.0684L335.077 13.8779V14.6616L332.264 14.8521C331.59 14.896 331.09 15.0449 330.763 15.2988C330.44 15.5479 330.279 15.897 330.279 16.3462V16.3608C330.279 16.8149 330.45 17.1763 330.792 17.4448C331.134 17.7085 331.573 17.8403 332.11 17.8403C332.584 17.8403 333.006 17.7427 333.377 17.5474C333.753 17.3472 334.051 17.0786 334.271 16.7417C334.491 16.4048 334.6 16.0288 334.6 15.6138V13.1675C334.6 12.5864 334.43 12.1445 334.088 11.8418C333.746 11.5391 333.255 11.3877 332.616 11.3877C332.078 11.3877 331.632 11.4927 331.275 11.7026C330.919 11.9126 330.687 12.2153 330.579 12.6108L330.572 12.6255H329.605L329.613 12.5962C329.681 12.1714 329.852 11.8052 330.125 11.4976C330.399 11.1899 330.75 10.9531 331.18 10.7871C331.61 10.6162 332.098 10.5308 332.645 10.5308C333.265 10.5308 333.792 10.6357 334.227 10.8457C334.661 11.0508 334.991 11.3486 335.216 11.7393C335.445 12.1299 335.56 12.6035 335.56 13.1602V18.5508H334.6V17.1885H334.505C334.349 17.501 334.144 17.7695 333.89 17.9941C333.636 18.2139 333.343 18.3848 333.011 18.5068C332.679 18.624 332.318 18.6826 331.927 18.6826ZM339.999 18.6021C339.252 18.6021 338.71 18.4458 338.373 18.1333C338.041 17.8208 337.875 17.3057 337.875 16.5879V11.4683H336.608V10.6626H337.875V8.61182H338.871V10.6626H340.68V11.4683H338.871V16.3682C338.871 16.8564 338.966 17.208 339.157 17.4229C339.347 17.6377 339.665 17.7451 340.109 17.7451C340.221 17.7451 340.319 17.7427 340.402 17.7378C340.485 17.7329 340.578 17.7256 340.68 17.7158V18.5435C340.568 18.5581 340.456 18.5703 340.343 18.5801C340.236 18.5947 340.121 18.6021 339.999 18.6021ZM342.146 18.5508V10.6626H343.112V18.5508H342.146ZM342.629 9.02197C342.439 9.02197 342.273 8.95361 342.131 8.81689C341.989 8.67529 341.919 8.50684 341.919 8.31152C341.919 8.11621 341.989 7.9502 342.131 7.81348C342.273 7.67188 342.439 7.60107 342.629 7.60107C342.829 7.60107 342.998 7.67188 343.134 7.81348C343.271 7.9502 343.339 8.11621 343.339 8.31152C343.339 8.50684 343.271 8.67529 343.134 8.81689C342.998 8.95361 342.829 9.02197 342.629 9.02197ZM348.811 18.6826C348.406 18.6826 348.03 18.6143 347.683 18.4775C347.341 18.3359 347.039 18.1382 346.775 17.8843C346.516 17.6304 346.311 17.3276 346.16 16.9761H346.072V18.5508H345.105V7.52051H346.072V12.2007H346.16C346.306 11.8589 346.511 11.5635 346.775 11.3145C347.039 11.0654 347.344 10.8726 347.691 10.7358C348.042 10.5991 348.416 10.5308 348.811 10.5308C349.475 10.5308 350.056 10.6992 350.554 11.0361C351.052 11.373 351.438 11.8467 351.712 12.457C351.99 13.0625 352.129 13.7754 352.129 14.5957V14.6104C352.129 15.4209 351.99 16.1338 351.712 16.749C351.438 17.3594 351.052 17.8354 350.554 18.1772C350.056 18.5142 349.475 18.6826 348.811 18.6826ZM348.613 17.8257C349.131 17.8257 349.578 17.6938 349.954 17.4302C350.335 17.1665 350.628 16.793 350.833 16.3096C351.038 15.8262 351.14 15.2573 351.14 14.603V14.5884C351.14 13.9341 351.038 13.3677 350.833 12.8892C350.628 12.4106 350.335 12.042 349.954 11.7832C349.578 11.5195 349.131 11.3877 348.613 11.3877C348.091 11.3877 347.637 11.5195 347.251 11.7832C346.87 12.0469 346.575 12.418 346.365 12.8965C346.155 13.375 346.05 13.9414 346.05 14.5957V14.6104C346.05 15.2549 346.155 15.8188 346.365 16.3022C346.575 16.7856 346.873 17.1616 347.258 17.4302C347.644 17.6938 348.096 17.8257 348.613 17.8257ZM353.675 18.5508V7.52051H354.642V18.5508H353.675ZM359.769 18.6826C359.032 18.6826 358.395 18.5166 357.858 18.1846C357.326 17.8525 356.915 17.3838 356.627 16.7783C356.339 16.1729 356.195 15.4575 356.195 14.6323V14.6177C356.195 13.7974 356.339 13.082 356.627 12.4717C356.915 11.8564 357.321 11.3804 357.843 11.0435C358.37 10.7017 358.986 10.5308 359.689 10.5308C360.397 10.5308 361.005 10.6968 361.513 11.0288C362.025 11.356 362.418 11.8149 362.692 12.4058C362.97 12.9917 363.109 13.6729 363.109 14.4492V14.8594H356.693V14.0684H362.619L362.142 14.7788V14.4126C362.142 13.7534 362.037 13.2017 361.827 12.7573C361.622 12.3081 361.334 11.9688 360.963 11.7393C360.597 11.5098 360.172 11.395 359.689 11.395C359.201 11.395 358.768 11.5122 358.392 11.7466C358.016 11.981 357.719 12.3252 357.499 12.7793C357.284 13.2285 357.177 13.7729 357.177 14.4126V14.7788C357.177 15.4087 357.284 15.9507 357.499 16.4048C357.714 16.8589 358.016 17.208 358.407 17.4521C358.798 17.6963 359.259 17.8184 359.791 17.8184C360.172 17.8184 360.512 17.7646 360.809 17.6572C361.112 17.5498 361.364 17.4082 361.564 17.2324C361.764 17.0518 361.908 16.8613 361.996 16.6611L362.018 16.6025H362.992L362.97 16.6611C362.892 16.9297 362.763 17.186 362.582 17.4302C362.406 17.6694 362.181 17.8843 361.908 18.0747C361.635 18.2603 361.317 18.4092 360.956 18.5215C360.599 18.6289 360.204 18.6826 359.769 18.6826Z" fill="#231925"></path><defs><linearGradient id="paint0_linear_16_8591" x1="137.102" y1="9.42237" x2="137.102" y2="26.7794" gradientUnits="userSpaceOnUse"><stop stop-color="#6344AC"></stop><stop offset="1" stop-color="#3F2E66"></stop></linearGradient><linearGradient id="paint1_linear_16_8591" x1="-2.245" y1="14.2527" x2="11.7226" y2="28.2202" gradientUnits="userSpaceOnUse"><stop stop-color="#5F96FF"></stop><stop offset="0.583" stop-color="#4F54D9"></stop><stop offset="0.7344" stop-color="#4F4FD6"></stop><stop offset="0.9146" stop-color="#4E40CC"></stop><stop offset="1" stop-color="#4E37C5"></stop></linearGradient><linearGradient id="paint2_linear_16_8591" x1="2.22064" y1="14.2815" x2="11.7093" y2="4.7929" gradientUnits="userSpaceOnUse"><stop stop-color="#3D56DE"></stop><stop offset="0.2691" stop-color="#4B79FF"></stop><stop offset="1" stop-color="#90ECFF"></stop></linearGradient><linearGradient id="paint3_linear_16_8591" x1="11.6951" y1="23.7666" x2="30.69" y2="4.77166" gradientUnits="userSpaceOnUse"><stop stop-color="#571EAB"></stop><stop offset="0.00987452" stop-color="#5A20AF"></stop><stop offset="0.0822791" stop-color="#6A2FCB"></stop><stop offset="0.1609" stop-color="#783AE0"></stop><stop offset="0.2477" stop-color="#8142EF"></stop><stop offset="0.349" stop-color="#8647F8"></stop><stop offset="0.4998" stop-color="#8848FB"></stop><stop offset="1" stop-color="#A97FFB"></stop></linearGradient><linearGradient id="paint4_linear_16_8591" x1="30.6911" y1="9.23492" x2="40.2059" y2="18.7497" gradientUnits="userSpaceOnUse"><stop stop-color="#702BFF"></stop><stop offset="0.43" stop-color="#A33AFF"></stop><stop offset="0.6547" stop-color="#B33DFF"></stop><stop offset="1" stop-color="#D343FF"></stop></linearGradient><linearGradient id="paint5_linear_16_8591" x1="26.2275" y1="28.2287" x2="35.7162" y2="18.7401" gradientUnits="userSpaceOnUse"><stop stop-color="#FFA7FF"></stop><stop offset="0.2652" stop-color="#F46BFF"></stop><stop offset="0.4767" stop-color="#ED41FF"></stop><stop offset="0.585" stop-color="#EA31FF"></stop><stop offset="0.6741" stop-color="#E42DFA"></stop><stop offset="0.7951" stop-color="#D320EB"></stop><stop offset="0.9339" stop-color="#B60CD3"></stop><stop offset="1" stop-color="#A600C5"></stop></linearGradient></defs></svg>