<?xml version="1.0" standalone="no"?>
<!DOCTYPE svg PUBLIC "-//W3C//DTD SVG 20010904//EN"
 "http://www.w3.org/TR/2001/REC-SVG-20010904/DTD/svg10.dtd">
<svg version="1.0" xmlns="http://www.w3.org/2000/svg"
 width="1024.000000pt" height="1024.000000pt" viewBox="0 0 1024.000000 1024.000000"
 preserveAspectRatio="xMidYMid meet">
<metadata>
Created by potrace 1.14, written by Peter Selinger 2001-2017
</metadata>
<g transform="translate(0.000000,1024.000000) scale(0.100000,-0.100000)"
fill="#000000" stroke="none">
<path d="M4510 5723 l-1955 -1953 -670 670 c-369 369 -670 674 -670 680 0 5
571 581 1268 1279 698 699 1260 1268 1250 1266 -10 -2 -94 -32 -188 -66 -93
-33 -224 -80 -290 -104 -66 -24 -502 -181 -970 -350 -467 -169 -863 -311 -880
-317 -16 -5 -39 -13 -50 -18 -11 -5 -60 -23 -110 -40 -49 -18 -115 -41 -145
-52 -30 -11 -118 -43 -195 -70 -77 -28 -180 -65 -230 -83 -49 -18 -187 -67
-305 -109 -118 -43 -244 -89 -280 -103 -36 -14 -70 -26 -77 -26 -7 0 4 -43 29
-111 22 -61 73 -205 114 -321 41 -115 83 -232 94 -260 10 -27 41 -114 69 -192
71 -200 141 -396 196 -548 26 -71 62 -175 81 -230 19 -55 41 -116 49 -135 8
-19 40 -107 71 -195 31 -88 67 -189 80 -225 68 -190 107 -300 120 -340 8 -25
19 -54 24 -65 5 -11 99 -272 209 -580 l199 -560 1204 -3 1203 -2 1957 1957
c1794 1794 1958 1955 1974 1942 13 -10 1140 -1139 1334 -1335 2 -3 -569 -578
-1270 -1279 -701 -701 -1272 -1275 -1268 -1275 7 0 96 31 383 135 66 24 208
75 315 113 107 39 283 102 390 140 107 39 254 91 325 117 145 52 329 118 890
320 209 75 385 138 390 139 6 2 17 6 25 9 16 7 536 194 775 278 77 28 155 57
173 65 18 7 38 14 45 14 37 0 34 23 -20 178 -30 87 -57 166 -60 177 -3 11 -9
29 -13 40 -8 18 -78 220 -116 335 -8 25 -18 52 -21 60 -3 8 -7 20 -9 25 -19
68 -217 622 -391 1095 -20 52 -46 124 -59 160 -12 36 -32 90 -44 120 -11 30
-34 91 -50 135 -15 44 -42 118 -60 165 -17 47 -33 90 -34 95 -2 6 -6 17 -9 25
-4 8 -30 78 -58 155 -93 257 -268 734 -341 932 l-31 83 -1206 -2 -1206 -2
-1955 -1953z"/>
</g>
</svg>
